<svg xmlns="http://www.w3.org/2000/svg" width="28" height="28" viewBox="0 0 28 28" fill="none" foxified="">
<path d="M24.6379 13.0093L14.468 23.1792C13.2221 24.4251 11.5323 25.125 9.77038 25.125C8.00843 25.125 6.31865 24.4251 5.07277 23.1792C3.82688 21.9333 3.12695 20.2435 3.12695 18.4816C3.12695 16.7196 3.82688 15.0298 5.07277 13.784L15.2426 3.6141C16.0732 2.78351 17.1997 2.31689 18.3744 2.31689C19.549 2.31689 20.6755 2.78351 21.5061 3.6141C22.3367 4.44469 22.8033 5.57121 22.8033 6.74585C22.8033 7.92048 22.3367 9.047 21.5061 9.87759L11.3252 20.0474C10.9099 20.4627 10.3466 20.6961 9.75931 20.6961C9.172 20.6961 8.60874 20.4627 8.19344 20.0474C7.77815 19.6322 7.54484 19.0689 7.54484 18.4816C7.54484 17.8943 7.77815 17.331 8.19344 16.9157L17.5887 7.53155" stroke="#1DA1F2" stroke-width="2.21324" stroke-linecap="round" stroke-linejoin="round"/>
</svg>