<svg id="Layer_1" data-name="Layer 1" xmlns="http://www.w3.org/2000/svg" viewBox="0 0 255 255"><title>exam</title><path d="M198.33,18.25H56.67A11.68,11.68,0,0,0,45,29.92V225.08a11.68,11.68,0,0,0,11.67,11.67H198.33A11.68,11.68,0,0,0,210,225.08V29.92A11.68,11.68,0,0,0,198.33,18.25ZM113.92,206.5H81.21l-.2,0a1.14,1.14,0,0,1-.93-1.32c1.3-6.73,7.92-11.95,16.11-12.48-3.87-.78-6.82-4.72-6.82-9.48,0-5.32,3.78-8.78,8.31-8.78s8.08,3.45,8.08,8.78c0,4.76-3,8.71-6.82,9.48,8.19.53,14.81,5.75,16.11,12.47a1.49,1.49,0,0,1,0,.21A1.14,1.14,0,0,1,113.92,206.5Zm0-45.2H81.21l-.2,0a1.14,1.14,0,0,1-.93-1.32c1.3-6.73,7.92-12,16.11-12.48-3.87-.78-6.82-4.72-6.82-9.49,0-5.31,3.78-8.77,8.31-8.77s8.08,3.45,8.08,8.77c0,4.77-3,8.72-6.82,9.49,8.19.53,14.81,5.75,16.11,12.47a1.49,1.49,0,0,1,0,.21A1.14,1.14,0,0,1,113.92,161.3Zm0-45.21H81a1.14,1.14,0,0,1-.93-1.32c1.3-6.73,7.92-12,16.11-12.48-3.87-.78-6.82-4.72-6.82-9.49,0-5.31,3.78-8.78,8.31-8.78s8.08,3.46,8.08,8.78c0,4.77-3,8.72-6.82,9.49,8.19.53,14.81,5.75,16.11,12.47a1.49,1.49,0,0,1,0,.21A1.13,1.13,0,0,1,113.92,116.09Zm0-45.2H81a1.15,1.15,0,0,1-.93-1.33c1.3-6.72,7.92-11.94,16.11-12.47-3.87-.78-6.82-4.73-6.82-9.49,0-5.31,3.78-8.78,8.31-8.78s8.08,3.46,8.08,8.78c0,4.76-3,8.72-6.82,9.49,8.19.53,14.81,5.75,16.11,12.47a1.5,1.5,0,0,1,0,.2A1.14,1.14,0,0,1,113.92,70.89Zm52.39,131.57h-37.8a2,2,0,1,1,0-4h37.8a2,2,0,0,1,0,4Zm12.74-7H129.51a5,5,0,1,1,0-10h49.54a5,5,0,0,1,0,10Zm-52.54-40.2a2,2,0,0,1,2-2h37.8a2,2,0,0,1,0,4h-37.8A2,2,0,0,1,126.51,155.26Zm52.54-5H129.51a5,5,0,1,1,0-10h49.54a5,5,0,0,1,0,10Zm-52.54-40.21a2,2,0,0,1,2-2h37.8a2,2,0,0,1,0,4h-37.8A2,2,0,0,1,126.51,110.05Zm52.54-5H129.51a5,5,0,1,1,0-10h49.54a5,5,0,0,1,0,10Zm-52.54-40.2a2,2,0,0,1,2-2h37.8a2,2,0,1,1,0,4h-37.8A2,2,0,0,1,126.51,64.85Zm52.54-5H129.51a5,5,0,1,1,0-10h49.54a5,5,0,0,1,0,10Z" style="fill:#209dac"/></svg>