<svg id="Layer_1" data-name="Layer 1" xmlns="http://www.w3.org/2000/svg" viewBox="0 0 255 255"><title>exam</title><path d="M167.22,86.29a7,7,0,0,0-7,7,1.75,1.75,0,0,0,3.5,0,3.5,3.5,0,1,1,7,0c0,1.52-.89,2.45-2.35,3.8s-2.89,2.67-2.89,5a1.75,1.75,0,1,0,3.49,0c0-.71.67-1.37,1.77-2.37,1.47-1.36,3.48-3.22,3.48-6.38A7,7,0,0,0,167.22,86.29Z" style="fill:#209dac"/><path d="M167.22,107.93a2.85,2.85,0,1,0,2.85,2.85A2.85,2.85,0,0,0,167.22,107.93Z" style="fill:#209dac"/><path d="M167.22,130.62a7,7,0,0,0-7,7,1.75,1.75,0,0,0,3.5,0,3.5,3.5,0,1,1,7,0c0,1.51-.89,2.44-2.35,3.8s-2.89,2.66-2.89,4.94a1.75,1.75,0,1,0,3.49,0c0-.71.67-1.36,1.77-2.37,1.47-1.36,3.48-3.21,3.48-6.37A7,7,0,0,0,167.22,130.62Z" style="fill:#209dac"/><path d="M167.22,152.27a2.84,2.84,0,1,0,2.85,2.84A2.84,2.84,0,0,0,167.22,152.27Z" style="fill:#209dac"/><path d="M167.22,42a7,7,0,0,0-7,7,1.75,1.75,0,1,0,3.5,0,3.5,3.5,0,1,1,7,0c0,1.52-.89,2.45-2.35,3.8s-2.89,2.66-2.89,5a1.75,1.75,0,1,0,3.49,0c0-.72.67-1.37,1.77-2.38,1.47-1.35,3.48-3.21,3.48-6.37A7,7,0,0,0,167.22,42Z" style="fill:#209dac"/><path d="M167.22,63.6a2.85,2.85,0,1,0,2.85,2.84A2.84,2.84,0,0,0,167.22,63.6Z" style="fill:#209dac"/><path d="M167.22,175a7,7,0,0,0-7,7,1.75,1.75,0,0,0,3.5,0,3.5,3.5,0,1,1,7,0c0,1.52-.89,2.45-2.35,3.8s-2.89,2.66-2.89,4.95a1.75,1.75,0,1,0,3.49,0c0-.72.67-1.37,1.77-2.38,1.47-1.35,3.48-3.21,3.48-6.37A7,7,0,0,0,167.22,175Z" style="fill:#209dac"/><path d="M167.22,196.6a2.85,2.85,0,1,0,2.85,2.84A2.84,2.84,0,0,0,167.22,196.6Z" style="fill:#209dac"/><path d="M198.33,18.25H56.67A11.68,11.68,0,0,0,45,29.92V225.08a11.68,11.68,0,0,0,11.67,11.67H198.33A11.68,11.68,0,0,0,210,225.08V29.92A11.68,11.68,0,0,0,198.33,18.25Zm-76,181.6H84.51a2,2,0,0,1,0-4h37.8a2,2,0,0,1,0,4Zm12.74-7H85.51a5,5,0,0,1,0-10h49.54a5,5,0,0,1,0,10ZM82.51,153.52a2,2,0,0,1,2-2h37.8a2,2,0,1,1,0,4H84.51A2,2,0,0,1,82.51,153.52Zm52.54-5H85.51a5,5,0,0,1,0-10h49.54a5,5,0,0,1,0,10ZM82.51,109.19a2,2,0,0,1,2-2h37.8a2,2,0,0,1,0,4H84.51A2,2,0,0,1,82.51,109.19Zm52.54-5H85.51a5,5,0,1,1,0-10h49.54a5,5,0,0,1,0,10ZM82.51,64.85a2,2,0,0,1,2-2h37.8a2,2,0,1,1,0,4H84.51A2,2,0,0,1,82.51,64.85Zm52.54-5H85.51a5,5,0,0,1,0-10h49.54a5,5,0,0,1,0,10ZM184.56,201a5,5,0,0,1-5,5H155.23a5,5,0,0,1-5-5V176.62a5,5,0,0,1,5-5h24.33a5,5,0,0,1,5,5Zm0-44.33a5,5,0,0,1-5,5H155.23a5,5,0,0,1-5-5V132.29a5,5,0,0,1,5-5h24.33a5,5,0,0,1,5,5Zm0-44.33a5,5,0,0,1-5,5H155.23a5,5,0,0,1-5-5V88a5,5,0,0,1,5-5h24.33a5,5,0,0,1,5,5Zm0-44.34a5,5,0,0,1-5,5H155.23a5,5,0,0,1-5-5V43.62a5,5,0,0,1,5-5h24.33a5,5,0,0,1,5,5Z" style="fill:#209dac"/></svg>