<svg id="Layer_1" data-name="Layer 1" xmlns="http://www.w3.org/2000/svg" viewBox="0 0 255 255"><title>exam</title><path d="M198.33,18.25H56.67A11.68,11.68,0,0,0,45,29.92V225.08a11.68,11.68,0,0,0,11.67,11.67H198.33A11.68,11.68,0,0,0,210,225.08V29.92A11.68,11.68,0,0,0,198.33,18.25ZM108.81,185.6,88.94,205.47a5,5,0,0,1-7.07,0L72.41,196a5,5,0,1,1,7.07-7.07l5.93,5.92,16.33-16.33a5,5,0,1,1,7.07,7.07Zm-34.9-45.08A5,5,0,0,1,81,133.45l8.48,8.48L98,133.45a5,5,0,0,1,7.07,7.07L96.53,149l8.49,8.48a5,5,0,0,1-3.54,8.54A5,5,0,0,1,98,164.55l-8.49-8.48L81,164.55a5,5,0,0,1-7.07,0,5,5,0,0,1,0-7.07L82.39,149Zm36.4-40.92L90.44,119.47a5,5,0,0,1-7.07,0L73.91,110A5,5,0,1,1,81,102.94l5.93,5.92,16.33-16.33a5,5,0,1,1,7.07,7.07Zm0-43L90.44,76.47a5,5,0,0,1-7.07,0L73.91,67A5,5,0,1,1,81,59.94l5.93,5.92,16.33-16.33a5,5,0,1,1,7.07,7.07ZM177.55,197H128a5,5,0,1,1,0-10h49.54a5,5,0,0,1,0,10Zm1.5-43H129.51a5,5,0,1,1,0-10h49.54a5,5,0,0,1,0,10Zm0-43H129.51a5,5,0,1,1,0-10h49.54a5,5,0,0,1,0,10Zm0-43H129.51a5,5,0,1,1,0-10h49.54a5,5,0,0,1,0,10Z" style="fill:#209dac"/></svg>